; NON-PLATED HOLES START AT T1
; THROUGH (PLATED) HOLES START AT T100
M48
INCH
T100C0.035000
T101C0.038000
%
T100
X021111Y006777
X021111Y003777
X007111Y019777
X020111Y006777
X010111Y019777
X020111Y003777
X024111Y006777
X007111Y014777
X024111Y003777
X010111Y014777
X019111Y006777
X019111Y003777
X025111Y006777
X007111Y016777
X025111Y003777
X007111Y013777
X010111Y016777
X010111Y013777
X018111Y006777
X018111Y003777
X007111Y015777
X010111Y015777
X023111Y006777
X023111Y003777
X007111Y018777
X022111Y006777
X010111Y018777
X022111Y003777
X007111Y017777
X010111Y017777
X007111Y020777
X010111Y020777
T101
X001111Y006777
X018111Y007777
X001111Y007777
X016111Y007777
X010111Y010777
X001111Y010777
X010111Y011777
X012111Y009777
X001111Y011777
X013111Y007777
X007111Y010777
X007111Y011777
X017111Y007777
X015111Y007777
X027111Y006777
X027111Y007777
X013111Y009777
X014111Y007777
T00
M30
