G04 MADE WITH FRITZING*
G04 WWW.FRITZING.ORG*
G04 DOUBLE SIDED*
G04 HOLES PLATED*
G04 CONTOUR ON CENTER OF CONTOUR VECTOR*
%ASAXBY*%
%FSLAX23Y23*%
%MOIN*%
%OFA0B0*%
%SFA1.0B1.0*%
%ADD10C,0.075000*%
%ADD11C,0.078000*%
%ADD12R,0.075000X0.075000*%
%ADD13R,0.078000X0.078000*%
%ADD14R,0.051181X0.059055*%
%ADD15C,0.024000*%
%LNCOPPER1*%
G90*
G70*
G54D10*
X711Y2078D03*
X1011Y2078D03*
X711Y1978D03*
X1011Y1978D03*
X711Y1878D03*
X1011Y1878D03*
X711Y1778D03*
X1011Y1778D03*
X711Y1678D03*
X1011Y1678D03*
X711Y1578D03*
X1011Y1578D03*
X711Y1478D03*
X1011Y1478D03*
X711Y1378D03*
X1011Y1378D03*
G54D11*
X111Y1178D03*
X111Y1078D03*
X111Y778D03*
X111Y678D03*
X711Y1178D03*
X711Y1078D03*
X1011Y1178D03*
X1011Y1078D03*
X1811Y778D03*
X1711Y778D03*
X1611Y778D03*
X1511Y778D03*
X1411Y778D03*
X1311Y778D03*
G54D10*
X2511Y678D03*
X2511Y378D03*
X2411Y678D03*
X2411Y378D03*
X2311Y678D03*
X2311Y378D03*
X2211Y678D03*
X2211Y378D03*
X2111Y678D03*
X2111Y378D03*
X2011Y678D03*
X2011Y378D03*
X1911Y678D03*
X1911Y378D03*
X1811Y678D03*
X1811Y378D03*
G54D11*
X1311Y978D03*
X1211Y978D03*
X2711Y778D03*
X2711Y678D03*
G54D12*
X711Y2078D03*
G54D13*
X111Y1178D03*
X111Y778D03*
X711Y1178D03*
X1011Y1178D03*
X1811Y778D03*
G54D14*
X1511Y1261D03*
X1598Y1261D03*
X1511Y1378D03*
X1598Y1378D03*
G54D12*
X2511Y678D03*
G54D13*
X1311Y978D03*
X2711Y778D03*
G54D15*
X1425Y751D02*
X1428Y746D01*
X1428Y746D02*
X1740Y602D01*
X1740Y602D02*
X1956Y602D01*
X1956Y602D02*
X1994Y655D01*
D02*
X2492Y399D02*
X2436Y458D01*
X2436Y458D02*
X1860Y458D01*
X1860Y458D02*
X1826Y402D01*
D02*
X987Y1563D02*
X948Y1538D01*
X948Y1538D02*
X936Y1394D01*
X936Y1394D02*
X733Y1199D01*
D02*
X1292Y1001D02*
X1092Y1250D01*
X1092Y1250D02*
X870Y1328D01*
X870Y1328D02*
X936Y1394D01*
D02*
X1182Y984D02*
X741Y1072D01*
D02*
X988Y1861D02*
X972Y1850D01*
X972Y1850D02*
X732Y1274D01*
X732Y1274D02*
X636Y1250D01*
X636Y1250D02*
X636Y1106D01*
X636Y1106D02*
X683Y1088D01*
D02*
X740Y2078D02*
X983Y2078D01*
D02*
X1497Y1285D02*
X1044Y2042D01*
X1044Y2042D02*
X1031Y2057D01*
G04 End of Copper1*
M02*